<svg xmlns="http://www.w3.org/2000/svg" width="376" height="294" viewBox="0 0 376 294" fill="none">
<circle cx="186.679" cy="146.986" r="136.986" stroke="#F46964" stroke-opacity="0.65" stroke-width="20"/>
<path d="M367.865 59.4986C366.626 57.5807 366.357 55.2203 365.864 52.9907C365.369 50.7612 364.48 48.4069 362.521 47.2339C360.561 46.061 357.379 46.9379 357.089 49.2028C356.186 48.4516 355.282 47.7015 354.38 46.9504C352.45 52.5211 351.476 58.4171 351.473 64.3131C357.874 63.6554 364.274 62.6663 370.676 61.2991C370.41 60.8191 370.351 60.3059 370.676 59.8217C369.734 59.9693 368.75 59.856 367.865 59.4986Z" fill="#FF5757"/>
<path d="M351.576 67.8582C350.937 67.988 350.482 68.7039 350.639 69.3376C349.653 69.5672 348.667 69.7948 347.681 70.0244C347.462 70.9864 347.244 71.9485 347.024 72.9105C341.794 75.0767 336.034 75.6845 330.75 77.7145C325.681 79.6626 320.772 83.5243 319.797 88.799C332.502 89.4587 345.204 89.0691 357.909 87.3102C358.127 85.1741 358.918 79.9577 359.778 80.2724C360.192 80.4241 360.605 80.5758 361.018 80.7275C363.788 78.9758 365.367 75.5131 364.872 72.2747C366.736 74.0492 369.114 72.2373 370.634 70.9376C371.908 69.8487 375.037 67.5496 375.497 65.9704C375.579 65.6878 375.576 65.4218 375.509 65.1725C375.232 64.172 373.904 63.4416 372.807 63.0073C371.98 62.6801 371.083 62.0298 370.679 61.2983C364.277 62.6656 357.876 63.6547 351.475 64.3123C351.473 65.4956 351.498 66.6779 351.576 67.8582Z" fill="#FFF8F8"/>
<path d="M319.797 88.8003C319.756 89.0237 319.71 89.245 319.684 89.4726C320.759 90.6497 321.223 92.3545 320.894 93.914C319.82 96.9685 316.131 98.1321 312.908 98.4531C309.685 98.7762 306.132 98.7918 303.69 100.919C304.165 102.622 305.148 104.18 306.484 105.336C304.482 107.158 302.481 108.98 300.48 110.802C315.02 112.676 329.559 113.392 344.098 112.468C344.254 112.085 344.445 111.711 344.756 111.338C345.984 109.864 347.836 109.006 349.546 108.231C351.614 107.294 353.594 105.912 355.695 105.139C358.343 104.164 360.694 103.676 362.958 101.817C367.462 98.1207 361.595 97.5524 359.559 95.0517C358.266 93.4673 357.943 90.1572 357.849 88.1562C357.843 88.0419 357.866 87.7303 357.909 87.3105C345.205 89.0695 332.502 89.459 319.797 88.8003Z" fill="#FF5757"/>
<path d="M268.316 82.644C267.518 82.163 266.72 81.6819 265.922 81.2019C265.981 81.0305 266.013 80.8508 266.046 80.6731C266.207 79.8493 266.136 78.9807 265.814 78.2046C264.182 79.1355 262.252 79.5189 260.387 79.309C260.325 79.3028 260.263 79.309 260.203 79.3007C260.202 79.2883 260.202 79.2768 260.202 79.2643C260.178 78.3553 260.155 77.4462 260.131 76.5381C258.768 77.0971 257.406 77.6571 256.042 78.2171C254.202 78.9724 252.36 79.7287 250.521 80.4841C249.346 80.9661 248.088 81.4586 246.842 81.2123C245.197 80.8882 244.077 79.3921 242.634 78.5392C241.19 77.6862 238.693 78.0363 238.64 79.7111C238.419 77.5989 239.47 75.4504 241.17 74.1954C241.606 73.8723 242.074 73.5949 242.587 73.4089C241.536 72.8583 240.466 73.1034 239.448 73.705C238.304 74.3813 237.227 75.5106 236.321 76.4893C232.92 80.163 228.155 82.5453 223.175 83.0648C223.768 82.0383 223.942 80.776 223.651 79.6248C221.519 81.3567 218.837 82.3998 216.096 82.5629C219.235 77.5615 223.703 73.413 228.9 70.6121C229.447 70.317 229.996 70.023 230.559 69.7591C227.943 69.4183 225.329 69.0776 222.713 68.7368C222.449 68.7025 222.187 68.6682 221.925 68.6339C220.026 70.5612 216.332 70.1321 214.929 67.8194C214.061 67.809 213.233 68.4729 213.056 69.3217C212.686 66.5186 208.886 65.9431 206.08 66.2963C203.276 66.6496 199.631 66.7649 198.506 64.1706C198.113 63.2647 198.166 62.2205 197.821 61.2949C197.762 61.139 197.678 60.9894 197.583 60.845C197.113 60.1333 196.254 59.6326 195.543 60.044C195.527 60.0897 195.523 60.1396 195.51 60.1853C195.202 61.2045 195.248 62.3276 195.659 63.3094C193.152 63.4143 190.644 63.5193 188.136 63.6221L183.027 63.7613L172.343 64.0543L157.166 64.0044C157.166 64.0044 156.679 63.9899 155.889 63.967C155.889 66.5612 155.889 69.1555 155.889 71.7487C186.465 80.5838 217.039 91.4251 247.615 99.7594C247.65 99.5901 247.68 99.4187 247.716 99.2483C247.971 98.0722 248.129 96.9553 248.278 95.7855C248.436 94.5512 249.389 93.8552 250.104 92.9191C251.149 91.5487 252.283 89.9373 252.526 88.1867C252.741 86.6408 253.198 86.0185 254.617 85.1447C255.911 84.3468 257.417 83.8741 258.937 83.7993C259.426 83.7754 263.172 83.9998 263.154 84.7479C263.17 84.1328 263.186 83.5167 263.202 82.9027C265.691 83.4429 268.32 83.3235 270.75 82.5598C270.605 81.364 268.384 81.4367 268.316 82.644Z" fill="#FF5757"/>
<path d="M279.731 101.079C279.503 100.567 279.255 100.044 278.828 99.6799C277.8 98.802 276.114 99.2477 275.215 100.259C274.317 101.269 274.005 102.656 273.724 103.978C272.421 104.609 271.139 102.74 271.488 101.334C271.837 99.9292 273.004 98.8882 273.65 97.5927C274.686 95.5159 274.183 92.7824 272.476 91.2094C273.229 91.0266 273.418 89.9419 272.995 89.2915C272.573 88.6412 271.798 88.3316 271.072 88.0584C269.751 87.5628 268.457 86.9093 267.013 87.1129C265.71 87.2968 264.539 88.077 263.409 88.6931C261.783 89.5804 259.688 90.0822 258.489 91.5367C256.219 94.2857 254.682 97.9729 254.613 101.621C263.74 103.985 272.866 106.094 281.993 107.831C281.444 105.52 280.69 103.256 279.731 101.079Z" fill="#FF5757"/>
<path d="M155.891 95.5219C187.347 104.611 218.803 115.822 250.258 124.244C249.969 123.902 249.733 123.502 249.527 123.102C247.073 118.317 246.304 112.887 246.574 107.56C246.706 104.938 247.085 102.331 247.617 99.7598C217.041 91.4265 186.467 80.5841 155.891 71.749C155.891 79.6751 155.891 87.598 155.891 95.5219Z" fill="#FFF8F8"/>
<path d="M300.481 110.802C298.954 112.192 297.428 113.581 295.901 114.972C293.354 117.291 290.732 119.658 287.542 120.962C284.352 122.264 280.42 122.308 277.708 120.181C278.791 117.138 279.874 114.096 280.957 111.053C280.695 111.623 281.72 112.049 282.161 111.603C282.603 111.158 282.534 110.434 282.421 109.818C282.299 109.153 282.152 108.492 281.996 107.835C272.87 106.098 263.744 103.99 254.616 101.624C254.608 101.992 254.599 102.362 254.625 102.728C254.888 106.71 256.768 110.404 257.473 114.331C258.177 118.26 257.203 123.067 253.581 124.739C253.388 124.829 253.186 124.906 252.98 124.967C282.139 132.621 311.299 137.747 340.458 136.438C340.49 136.02 340.524 135.606 340.524 135.165C340.524 134.211 340.575 132.718 340.893 131.823C341.194 130.977 342.061 130.176 342.48 129.342C343.415 127.482 343.886 125.394 343.879 123.315C343.872 121.749 343.629 120.094 342.979 118.662C342.239 117.024 342.893 115.947 343.484 114.286C343.72 113.625 343.864 113.036 344.097 112.468C329.559 113.393 315.021 112.676 300.481 110.802ZM341.356 116.473C341.361 116.518 341.37 116.564 341.374 116.592C341.37 116.564 341.361 116.518 341.356 116.473ZM341.263 117.536C341.263 117.536 341.272 117.553 341.279 117.56C341.272 117.553 341.264 117.543 341.263 117.536Z" fill="#FFF8F8"/>
<path d="M252.98 124.965C252.351 125.153 251.679 125.188 251.092 124.916C250.761 124.764 250.493 124.521 250.258 124.245C218.803 115.822 187.347 104.611 155.891 95.5225C155.891 103.446 155.891 111.37 155.891 119.294C217.389 137.064 278.889 162.952 340.389 160.211C340.038 158.101 339.485 155.978 338.301 154.411C337.507 153.36 336.703 152.29 335.846 151.297C334.267 149.463 333.005 147.83 332.303 145.497C331.808 143.859 331.47 142.054 331.312 140.341C331.22 139.343 331.372 138.255 330.994 137.366C331.749 137.257 332.369 137.91 332.723 138.503C332.974 138.926 333.062 140.04 333.417 140.306C334.88 141.32 336.345 142.332 337.809 143.345C336.675 145.544 336.526 148.229 337.406 150.541C339.088 148.224 340.031 145.429 340.263 142.584C340.373 141.247 340.107 139.884 340.251 138.564C340.33 137.838 340.403 137.142 340.458 136.438C311.299 137.745 282.14 132.619 252.98 124.965Z" fill="#FF5757"/>
<path d="M155.891 119.295C155.891 127.219 155.891 135.143 155.891 143.067C212.736 159.492 269.58 182.852 326.425 184.131C327.689 183.261 329.213 182.86 330.597 183.441C330.343 180.543 332.281 177.913 334.651 176.328C335.449 175.794 336.399 175.796 337.063 175.296C337.571 174.913 337.966 174.166 338.431 173.692C339.058 173.056 339.636 172.437 340.08 171.654C341.493 169.16 341.278 166.643 340.894 163.877C340.737 162.741 340.599 161.478 340.389 160.212C278.889 162.954 217.39 137.065 155.891 119.295Z" fill="#FFF8F8"/>
<path d="M35.9452 152.596C35.6802 152.632 35.4153 152.673 35.1504 152.709C35.4153 152.673 35.6802 152.632 35.9452 152.596Z" fill="#F15F56"/>
<path d="M48.0953 151.356C47.9228 151.369 47.7524 151.377 47.582 151.389C47.7524 151.376 47.9228 151.368 48.0953 151.356Z" fill="#F15F56"/>
<path d="M42.2789 151.852C41.9174 151.888 41.5569 151.926 41.1953 151.963C41.5558 151.926 41.9174 151.888 42.2789 151.852Z" fill="#F15F56"/>
<path d="M155.894 166.837C155.724 166.787 155.553 166.741 155.383 166.692C207.358 181.67 259.336 202.52 311.311 207.062C311.637 205.986 312.079 204.934 312.655 203.917C315.067 199.649 319.451 196.724 321.684 192.36C322.755 190.267 323.295 187.908 324.609 185.96C325.082 185.258 325.714 184.621 326.427 184.13C269.583 182.851 212.738 159.49 155.893 143.066C155.894 150.99 155.894 158.914 155.894 166.837Z" fill="#FF5757"/>
<path d="M54.0376 151.031C53.7374 151.043 53.435 151.059 53.1348 151.071C53.435 151.059 53.7374 151.043 54.0376 151.031Z" fill="#F15F56"/>
<path d="M65.9825 150.909C65.8763 150.907 65.7712 150.903 65.666 150.901C65.7712 150.903 65.8774 150.907 65.9825 150.909Z" fill="#F15F56"/>
<path d="M72.1222 151.106C71.797 151.091 71.4708 151.081 71.1445 151.067C71.4708 151.081 71.797 151.092 72.1222 151.106Z" fill="#F15F56"/>
<path d="M12.1872 157.495C11.9234 157.567 11.6584 157.639 11.3945 157.714C11.6584 157.639 11.9234 157.567 12.1872 157.495Z" fill="#F15F56"/>
<path d="M78.3807 151.48C78.0337 151.455 77.6888 151.428 77.3418 151.405C77.6888 151.428 78.0337 151.454 78.3807 151.48Z" fill="#F15F56"/>
<path d="M59.2637 150.895C59.6211 150.891 59.9795 150.888 60.3379 150.884C59.9806 150.888 59.6211 150.891 59.2637 150.895Z" fill="#F15F56"/>
<path d="M30.1545 153.48C29.9301 153.518 29.7067 153.552 29.4844 153.591C29.7067 153.552 29.9301 153.518 30.1545 153.48Z" fill="#F15F56"/>
<path d="M17.8511 156.008C17.6319 156.062 17.4106 156.121 17.1914 156.176C17.4106 156.122 17.6298 156.062 17.8511 156.008Z" fill="#F15F56"/>
<path d="M24.2146 154.588C23.853 154.662 23.4905 154.739 23.1289 154.815C23.4905 154.739 23.853 154.662 24.2146 154.588Z" fill="#F15F56"/>
<path d="M144.445 163.635C144.076 163.535 143.704 163.437 143.334 163.337C143.704 163.437 144.075 163.535 144.445 163.635Z" fill="#F15F56"/>
<path d="M126.372 159.087C126.002 159.001 125.631 158.916 125.26 158.832C125.631 158.916 126.002 159.001 126.372 159.087Z" fill="#F15F56"/>
<path d="M132.425 160.529C132.148 160.463 131.874 160.393 131.598 160.327C131.874 160.393 132.149 160.462 132.425 160.529Z" fill="#F15F56"/>
<path d="M119.965 157.654C119.798 157.618 119.629 157.583 119.461 157.547C119.629 157.583 119.798 157.618 119.965 157.654Z" fill="#F15F56"/>
<path d="M138.057 161.947C137.833 161.89 137.61 161.835 137.387 161.776C137.61 161.835 137.833 161.89 138.057 161.947Z" fill="#F15F56"/>
<path d="M150.399 165.276C150.16 165.209 149.923 165.141 149.684 165.074C149.923 165.141 150.16 165.209 150.399 165.276Z" fill="#F15F56"/>
<path d="M83.7831 151.925C83.7769 151.923 83.7706 151.923 83.7656 151.923C83.7706 151.923 83.7756 151.923 83.7831 151.925Z" fill="#F15F56"/>
<path d="M96.4239 153.427C96.0883 153.379 95.7517 153.33 95.4141 153.283C95.7517 153.33 96.0883 153.379 96.4239 153.427Z" fill="#F15F56"/>
<path d="M114.424 156.511C114.118 156.45 113.813 156.388 113.508 156.328C113.813 156.387 114.118 156.45 114.424 156.511Z" fill="#F15F56"/>
<path d="M90.2133 152.615C89.8642 152.574 89.5151 152.535 89.166 152.495C89.5161 152.534 89.8642 152.574 90.2133 152.615Z" fill="#F15F56"/>
<path d="M101.868 154.243C101.769 154.226 101.672 154.213 101.574 154.196C101.672 154.213 101.77 154.226 101.868 154.243Z" fill="#F15F56"/>
<path d="M108.295 155.344C107.933 155.279 107.572 155.215 107.211 155.15C107.571 155.215 107.933 155.278 108.295 155.344Z" fill="#F15F56"/>
<path d="M150.398 165.276C150.159 165.209 149.921 165.14 149.682 165.074C147.935 164.586 146.19 164.107 144.442 163.635C144.074 163.535 143.702 163.437 143.332 163.337C141.574 162.865 139.816 162.401 138.059 161.947C137.836 161.89 137.612 161.835 137.389 161.776C135.733 161.352 134.077 160.937 132.422 160.53C132.145 160.463 131.871 160.394 131.595 160.327C129.855 159.903 128.113 159.491 126.374 159.088C126.003 159.002 125.632 158.917 125.261 158.833C123.496 158.429 121.729 158.034 119.962 157.655C119.795 157.619 119.626 157.584 119.458 157.548C117.78 157.189 116.102 156.845 114.423 156.51C114.117 156.449 113.812 156.387 113.507 156.327C111.769 155.984 110.03 155.657 108.292 155.343C107.931 155.279 107.57 155.214 107.209 155.15C105.427 154.833 103.645 154.527 101.865 154.243C101.766 154.226 101.669 154.213 101.572 154.196C99.8543 153.923 98.1369 153.669 96.4206 153.425C96.085 153.378 95.7484 153.329 95.4107 153.282C93.6778 153.044 91.9448 152.821 90.2119 152.613C89.8628 152.572 89.5137 152.533 89.1646 152.493C87.3683 152.287 85.573 152.091 83.7767 151.922C83.7705 151.921 83.7663 151.921 83.7622 151.921C81.9658 151.751 80.1706 151.608 78.3742 151.478C78.0272 151.453 77.6823 151.426 77.3353 151.404C75.5972 151.286 73.858 151.185 72.1198 151.105C71.7946 151.091 71.4684 151.081 71.1422 151.067C69.4217 150.995 67.6992 150.939 65.9776 150.909C65.8717 150.907 65.7667 150.903 65.6618 150.901C63.8852 150.871 62.1076 150.871 60.331 150.884C59.9726 150.888 59.6141 150.89 59.2568 150.895C57.5145 150.918 55.7722 150.962 54.0319 151.031C53.7317 151.043 53.4294 151.059 53.1291 151.071C51.4471 151.145 49.7671 151.237 48.0861 151.355C47.9136 151.367 47.7433 151.376 47.5729 151.387C45.8056 151.515 44.0405 151.673 42.2722 151.85C41.9107 151.887 41.5502 151.924 41.1886 151.962C39.437 152.149 37.6874 152.356 35.9368 152.593C35.6718 152.629 35.4069 152.67 35.142 152.706C33.4776 152.94 31.8132 153.196 30.1499 153.476C29.9255 153.514 29.7021 153.548 29.4798 153.586C27.7229 153.89 25.9651 154.225 24.2072 154.585C23.8456 154.659 23.483 154.735 23.1215 154.811C21.3615 155.181 19.6005 155.575 17.8416 156.004C17.6203 156.058 17.4011 156.116 17.1819 156.171C15.5154 156.583 13.8479 157.023 12.1825 157.491C11.9186 157.563 11.6537 157.635 11.3898 157.71C10.6844 157.91 9.97894 158.14 9.27246 158.351C8.98468 158.693 8.58884 158.934 8.1317 158.951C7.81587 160.778 8.66989 162.579 9.49688 164.238C11.1748 167.593 12.8547 170.951 14.5336 174.308C14.2822 175.991 14.0308 177.673 13.7762 179.356C14.1648 179.83 14.6417 180.177 15.1715 180.45C106.271 156.725 197.37 212.357 288.47 227.859C289.37 227.326 290.313 226.912 291.28 226.773C292.624 226.582 293.972 227.064 295.185 227.676C296.097 228.135 296.96 228.681 297.771 229.297C304.399 230.216 311.028 230.9 317.656 231.305C317.458 231.007 317.256 230.709 317.062 230.41C312.543 223.492 308.991 214.662 311.301 207.059C259.326 202.517 207.348 181.668 155.373 166.689C153.717 166.213 152.058 165.741 150.398 165.276Z" fill="#FFF8F8"/>
<path d="M15.1816 180.455C17.3655 181.579 20.4667 181.406 22.1508 183.287C22.983 184.217 23.356 185.557 24.3845 186.261C25.3154 186.897 26.5559 186.853 27.5761 187.331C28.5964 187.809 29.2457 189.419 28.2722 189.985C30.9163 190.442 33.0773 192.498 34.2711 194.9C35.0887 196.544 35.5116 198.339 35.7588 200.164C105.033 190.696 174.307 221.913 243.582 241.276C243.713 241.161 243.841 241.047 243.963 240.942C244.94 240.098 245.19 239.511 246.505 239.711C247.361 239.841 248.603 240.269 249.242 240.87C249.924 241.511 249.999 242.682 251.054 242.577C251.961 242.487 252.404 241.436 252.262 240.69C251.983 239.234 250.435 239.209 249.774 238.178C249.207 237.295 249.577 236.099 249.903 235.233C250.298 234.182 250.725 233.727 249.175 233.428C248.499 233.297 247.732 233.497 247.134 233.667C247.074 233.684 247.648 232.059 247.815 231.871C248.121 231.527 248.505 231.392 248.88 231.139C250.224 230.236 251.6 229.499 253.176 229.083C254.584 228.712 256.108 228.553 257.557 228.749C258.875 228.925 260.129 229.365 261.488 229.212C262.377 229.111 263.136 228.571 263.974 228.247C265.8 227.537 267.73 227.094 269.68 226.915C273.518 226.563 277.463 227.242 280.913 228.98C282.944 230.005 282.765 232.292 285.095 230.369C286.093 229.548 287.243 228.592 288.477 227.863C197.38 212.361 106.28 156.731 15.1816 180.455Z" fill="#FF5757"/>
<path d="M303.399 236.378C304.244 238.223 304.797 240.207 305.001 242.225C305.091 243.124 304.943 244.025 305.118 244.893C305.347 246.019 305.864 247.339 306.426 248.34C306.924 249.226 307.863 249.85 308.575 250.548C309.02 250.985 309.437 251.431 309.937 251.808C310.337 252.111 311.231 252.381 311.521 252.738C312.078 253.428 312.66 254.098 313.233 254.771C318.769 255.212 324.304 255.457 329.84 255.494C329.834 255.434 329.834 255.376 329.827 255.317C328.863 246.295 322.721 238.888 317.665 231.307C311.036 230.902 304.408 230.218 297.779 229.299C300.201 231.14 302.135 233.614 303.399 236.378Z" fill="#FF5757"/>
<path d="M323.533 265.389C327.978 265.598 330.237 259.953 329.835 255.495C324.299 255.459 318.764 255.213 313.229 254.773C316.426 258.534 319.859 262.091 323.533 265.389Z" fill="#FFF8F8"/>
<path d="M35.7598 200.165C35.874 201.008 35.9541 201.859 36.0112 202.704C42.143 203.157 48.2769 203.609 54.4087 204.062C53.8684 204.582 53.4934 205.271 53.3479 206.007C56.898 207.97 60.4594 209.912 64.0188 211.859L80.432 220.457L81.7088 220.569L85.1965 220.969C85.1965 220.969 96.0929 222.114 96.122 222.117L102.624 222.679L102.975 218.596C106.603 218.893 110.848 218.685 114.33 219.739C119.346 221.258 122.936 225.827 125.65 230.235C149.352 235.676 173.056 243.216 196.759 250.756C197.917 249.97 199.042 249.129 200.183 248.382C202.699 246.732 205.152 244.896 207.509 243.025C211.065 240.198 216.027 237.755 220.682 238.41C222.715 238.695 224.026 239.198 226.189 238.966C229.5 238.613 232.761 238.76 235.82 240.178C237.223 240.828 238.542 242.284 239.906 242.767C241.277 243.255 242.567 242.169 243.585 241.275C174.309 221.914 105.034 190.697 35.7598 200.165Z" fill="#FFF8F8"/>
<path d="M125.646 230.234C126.016 230.834 126.371 231.432 126.709 232.019C130.36 238.336 134.783 245.591 142.027 246.458C141.254 241.327 148.071 237.788 152.958 239.539C157.844 241.29 160.878 246.058 163.541 250.514C166.396 255.293 169.253 260.069 172.108 264.848C172.587 265.649 173.082 266.447 173.595 267.233C174.531 268.661 175.552 270.023 176.837 271.135C180.153 274.004 185.055 274.911 189.179 273.415C189.046 272.94 188.912 272.468 188.779 271.993C187.828 268.606 186.876 265.219 185.924 261.833C187.732 261.344 188.678 258.91 187.676 257.326C189.322 255.48 190.996 253.664 193.271 252.72C194.493 252.215 195.639 251.512 196.755 250.755C173.053 243.215 149.349 235.676 125.646 230.234Z" fill="#FF5757"/>
<path d="M12.189 157.494C13.8555 157.028 15.5219 156.587 17.1884 156.175C17.4076 156.12 17.6289 156.062 17.8481 156.008C19.6071 155.578 21.3681 155.185 23.128 154.815C23.4896 154.739 23.8522 154.663 24.2137 154.588C25.9716 154.229 27.7295 153.893 29.4863 153.59C29.7086 153.551 29.932 153.517 30.1564 153.48C31.8198 153.198 33.4841 152.943 35.1485 152.71C35.4134 152.674 35.6784 152.632 35.9433 152.597C37.6939 152.359 39.4435 152.151 41.1951 151.965C41.5567 151.928 41.9172 151.89 42.2787 151.854C44.046 151.676 45.8111 151.518 47.5794 151.391C47.7498 151.378 47.9202 151.37 48.0926 151.358C49.7726 151.241 51.4526 151.148 53.1356 151.075C53.4359 151.062 53.7382 151.047 54.0385 151.034C55.7797 150.967 57.522 150.923 59.2633 150.898C59.6207 150.894 59.9791 150.892 60.3376 150.888C62.1141 150.873 63.8918 150.873 65.6683 150.904C65.7733 150.906 65.8782 150.911 65.9842 150.913C67.7047 150.943 69.4272 150.999 71.1487 151.071C71.4749 151.084 71.8012 151.094 72.1264 151.109C73.8645 151.189 75.6037 151.29 77.3418 151.407C77.6888 151.43 78.0338 151.457 78.3808 151.482C80.1771 151.612 81.9724 151.754 83.7687 151.925C83.7728 151.925 83.7781 151.925 83.7832 151.926C85.5796 152.095 87.3748 152.29 89.1712 152.497C89.5202 152.536 89.8693 152.576 90.2184 152.617C91.9514 152.823 93.6843 153.047 95.4173 153.286C95.7539 153.332 96.0905 153.381 96.4271 153.429C98.1434 153.672 99.8608 153.927 101.578 154.2C101.676 154.216 101.773 154.23 101.871 154.247C103.652 154.53 105.434 154.837 107.215 155.154C107.577 155.218 107.937 155.281 108.299 155.347C110.036 155.662 111.775 155.988 113.513 156.331C113.819 156.391 114.123 156.452 114.43 156.514C116.108 156.848 117.786 157.193 119.464 157.551C119.633 157.587 119.801 157.621 119.968 157.658C121.735 158.038 123.502 158.432 125.268 158.837C125.639 158.921 126.01 159.006 126.381 159.091C128.121 159.495 129.862 159.907 131.601 160.331C131.878 160.397 132.152 160.467 132.428 160.533C134.084 160.941 135.74 161.356 137.396 161.78C137.619 161.838 137.842 161.893 138.066 161.95C139.822 162.404 141.58 162.869 143.338 163.34C143.708 163.44 144.08 163.539 144.449 163.639C146.196 164.11 147.942 164.589 149.688 165.077C149.927 165.144 150.165 165.213 150.404 165.279C152.064 165.744 153.723 166.216 155.384 166.695C155.554 166.744 155.724 166.791 155.895 166.841C155.895 158.918 155.895 150.994 155.895 143.07C155.895 135.146 155.895 127.222 155.895 119.298C155.895 111.374 155.895 103.45 155.895 95.5258C155.895 87.6018 155.895 79.6779 155.895 71.7539C155.895 69.1607 155.895 66.5665 155.895 63.9723C152.198 63.8653 141.719 63.5609 141.713 63.5609L129.248 62.9448L124.681 62.5926C124.949 63.5266 125.215 64.4616 125.482 65.3966C124.488 64.4013 123.491 63.4123 122.497 62.4243L120.252 62.2508C119.393 62.7277 118.535 63.2035 117.676 63.6866C117.851 63.1546 118.023 62.6238 118.198 62.0918L116.335 61.9474L108.83 61.1817L101.239 60.5002L94.5394 59.6171C94.5456 59.6378 94.5518 59.6586 94.558 59.6805C94.5321 59.6566 94.5051 59.6337 94.4791 59.6098L92.5207 59.3511L86.9811 58.5885C86.9042 58.6394 86.8284 58.6883 86.7515 58.7392C86.7702 58.681 86.7878 58.6228 86.8065 58.5646L81.1713 57.7875L75.6297 56.8888L69.3586 55.8125C69.3586 55.8125 63.5136 54.8099 63.4855 54.8037L62.8009 54.6728C63.0783 55.5808 63.3557 56.4878 63.6341 57.3969C62.3333 56.3829 61.0326 55.3823 59.7298 54.3933C58.429 55.4114 57.1293 56.4421 55.8275 57.4852C56.2254 56.1761 56.6223 54.8691 57.0192 53.5632L45.8257 51.4147C45.6522 51.3742 45.4797 51.3326 45.3083 51.2921C42.8626 50.7144 40.419 50.1378 37.9744 49.5602C36.4856 49.209 34.9979 48.8568 33.5091 48.5046C32.8971 48.3602 32.2779 48.2334 31.6712 48.0714C31.0561 47.9072 30.3569 47.288 29.7232 47.4002C29.7169 47.9259 29.7492 48.4526 29.7211 48.9783C29.7024 49.3222 29.6453 49.5799 29.5673 49.821C29.8105 50.5763 30.0546 51.3315 30.2988 52.0869C31.907 51.8167 33.5163 51.5694 35.1246 51.344C33.8228 52.5305 32.5221 53.7305 31.2213 54.946C31.719 56.4888 32.2135 58.0348 32.7122 59.5817C31.4125 58.7786 30.1097 57.9901 28.8089 57.2171C27.5071 58.4514 26.2074 59.6992 24.9056 60.9635C25.4012 59.2399 25.8989 57.5194 26.3965 55.8C25.5093 55.2857 24.622 54.7881 23.7348 54.2873C23.6329 54.2696 23.5363 54.2717 23.4314 54.2458C22.1524 53.9227 20.8756 53.2089 19.7837 52.4869C19.3577 52.2043 16.6991 50.4526 16.8227 49.9082C16.6087 50.8568 16.0944 51.7253 15.9531 52.6863C15.7453 54.0951 16.3676 55.5548 16.8269 56.8524C17.2674 58.0981 17.3193 59.508 17.1905 60.8129C17.0232 62.5136 16.5941 64.1125 16.164 65.7634C15.6435 67.7561 15.2362 69.7748 14.7355 71.7633C14.7698 71.8651 14.803 71.9658 14.8383 72.0687C16.4456 71.6469 18.0538 71.249 19.6642 70.8761C18.3624 72.182 17.0637 73.5035 15.7609 74.8406C16.2565 76.3367 16.7552 77.8359 17.2507 79.3361C15.95 78.6546 14.6503 77.9886 13.3485 77.3393C13.3121 77.3767 13.2779 77.4151 13.2405 77.4525C13.1231 77.9013 13.0108 78.3522 12.883 78.799C12.4197 80.4207 11.9418 81.8337 11.974 83.524C12.0062 85.1915 11.0348 86.9203 10.3855 88.4205C9.62079 90.1867 8.77301 91.9186 7.82238 93.5934C6.94344 95.1445 5.96996 96.6604 5.37154 98.3403C3.06614 104.801 6.38865 113.124 1.77681 118.203C1.21163 118.825 0.533204 119.383 0.210095 120.159C-0.596121 122.1 1.12644 124.016 1.86305 126.03C2.64225 125.758 3.42144 125.472 4.20169 125.213C3.52846 125.956 2.85524 126.717 2.18408 127.469C2.33265 129.246 1.69474 131.068 1.43085 132.875C1.55033 133.224 1.66877 133.57 1.78928 133.919C1.64175 133.856 1.49631 133.8 1.34878 133.739C1.31553 134.301 1.32176 134.862 1.43916 135.418C2.13213 138.651 5.86711 141.691 4.14455 144.514C4.94246 145.131 5.73828 145.748 6.53619 146.366C7.41513 147.046 7.15643 147.698 6.87176 148.6C6.61514 149.417 6.41359 150.175 6.43956 151.041C6.48736 152.688 7.17305 154.354 8.42082 155.453C8.74392 155.737 9.10132 155.983 9.48676 156.173C9.96364 156.824 9.79637 157.755 9.28521 158.36C9.99169 158.149 10.6971 157.919 11.4026 157.719C11.6602 157.639 11.9251 157.567 12.189 157.494ZM48.1695 141.165C46.8698 140.252 45.567 139.351 44.2662 138.464C42.9665 139.584 41.6637 140.719 40.3619 141.867C40.8596 140.187 41.3562 138.511 41.8538 136.835C40.551 135.965 39.2513 135.11 37.9495 134.267C39.5588 134.068 41.165 133.89 42.7733 133.731C43.272 132.059 43.7675 130.388 44.2673 128.72C44.7628 130.3 45.2615 131.88 45.7581 133.463C47.3654 133.331 48.9736 133.22 50.585 133.129C49.2801 134.207 47.9804 135.296 46.6776 136.401C47.1742 137.987 47.6698 139.576 48.1695 141.165ZM68.8714 132.915C70.4807 132.966 72.089 133.034 73.6972 133.118C74.1949 131.521 74.6905 129.924 75.1881 128.329C75.6847 129.983 76.1803 131.638 76.679 133.294C78.2883 133.399 79.8966 133.52 81.5048 133.658C80.202 134.55 78.9033 135.454 77.6016 136.366C78.0992 138.025 78.5948 139.684 79.0924 141.346C77.7896 140.244 76.4889 139.153 75.1892 138.073C73.8874 139.001 72.5876 139.937 71.2859 140.888C71.7814 139.285 72.2791 137.683 72.7767 136.083C71.4729 135.015 70.1732 133.96 68.8714 132.915ZM110.015 145.476C108.715 144.23 107.414 142.991 106.112 141.762C104.81 142.539 103.512 143.324 102.209 144.118C102.706 142.575 103.202 141.031 103.7 139.491C102.398 138.27 101.098 137.058 99.7964 135.855C101.405 136.103 103.013 136.361 104.622 136.635C105.118 135.095 105.617 133.556 106.113 132.02C106.61 133.73 107.108 135.442 107.604 137.154C109.213 137.44 110.822 137.74 112.43 138.053C111.129 138.804 109.826 139.563 108.527 140.33C109.022 142.044 109.52 143.76 110.015 145.476ZM140.94 152.519C139.638 151.171 138.339 149.83 137.037 148.494C135.735 149.165 134.437 149.843 133.134 150.523C133.629 149.022 134.127 147.52 134.625 146.022C133.323 144.692 132.02 143.368 130.721 142.05C132.33 142.44 133.938 142.837 135.547 143.243C136.045 141.745 136.542 140.247 137.038 138.751C137.536 140.502 138.033 142.253 138.529 144.006C140.138 144.422 141.747 144.847 143.355 145.277C142.052 145.933 140.753 146.593 139.452 147.256C139.947 149.009 140.443 150.763 140.94 152.519ZM53.4089 116.33C55.0171 116.262 56.6254 116.213 58.2358 116.183C58.7324 114.55 59.23 112.918 59.7256 111.29C60.2264 112.907 60.722 114.527 61.2196 116.15C62.8258 116.141 64.4351 116.154 66.0424 116.184C64.7416 117.163 63.4409 118.154 62.138 119.159C62.6357 120.781 63.1323 122.407 63.6299 124.034C62.3292 123.021 61.0284 122.021 59.7256 121.031C58.4249 122.049 57.1252 123.081 55.8234 124.124C56.3221 122.484 56.8176 120.848 57.3173 119.212C56.0124 118.24 54.7127 117.278 53.4089 116.33ZM48.1695 107.842C46.8698 106.929 45.567 106.028 44.2662 105.142C42.9665 106.263 41.6637 107.398 40.3619 108.544C40.8596 106.865 41.3562 105.188 41.8538 103.513C40.551 102.643 39.2513 101.787 37.9495 100.945C39.5588 100.745 41.165 100.567 42.7733 100.41C43.272 98.7372 43.7675 97.0656 44.2673 95.397C44.7628 96.9773 45.2615 98.5575 45.7581 100.14C47.3654 100.009 48.9736 99.8977 50.585 99.8073C49.2801 100.884 47.9804 101.975 46.6776 103.078C47.1742 104.665 47.6698 106.254 48.1695 107.842ZM32.707 126.219C31.4073 125.417 30.1045 124.628 28.8037 123.855C27.5019 125.089 26.2022 126.338 24.9004 127.6C25.396 125.877 25.8937 124.157 26.3913 122.436C25.0895 121.681 23.7898 120.942 22.488 120.217C24.0963 119.872 25.7056 119.55 27.3139 119.251C27.8115 117.536 28.3071 115.821 28.8048 114.109C29.3024 115.646 29.798 117.184 30.2956 118.724C31.9039 118.453 33.5132 118.206 35.1215 117.98C33.8197 119.167 32.519 120.368 31.2182 121.582C31.7138 123.127 32.2083 124.672 32.707 126.219ZM48.1695 74.5206C46.8698 73.6074 45.567 72.7077 44.2662 71.8204C42.9665 72.9404 41.6637 74.0749 40.3619 75.2219C40.8596 73.543 41.3562 71.8672 41.8538 70.1903C40.551 69.3207 39.2513 68.4646 37.9495 67.6231C39.5588 67.4226 41.165 67.2449 42.7733 67.087C43.272 65.4143 43.7675 63.7437 44.2673 62.0752C44.7628 63.6554 45.2615 65.2356 45.7581 66.819C47.3654 66.6881 48.9736 66.5758 50.585 66.4844C49.2801 67.5618 47.9804 68.6527 46.6776 69.7561C47.1742 71.3436 47.6698 72.93 48.1695 74.5206ZM61.2186 82.8269C62.8248 82.8207 64.4341 82.8331 66.0413 82.8612C64.7406 83.8409 63.4398 84.8321 62.137 85.8357C62.6346 87.4585 63.1313 89.0865 63.6289 90.7124C62.3282 89.6995 61.0274 88.699 59.7246 87.7099C58.4238 88.7271 57.1241 89.7587 55.8223 90.8008C56.321 89.1634 56.8166 87.526 57.3163 85.8897C56.0135 84.9152 54.7127 83.9542 53.4089 83.0066C55.0171 82.9391 56.6254 82.8903 58.2358 82.8602C58.7324 81.227 59.23 79.5948 59.7256 77.9657C60.2253 79.5844 60.7209 81.2052 61.2186 82.8269ZM99.7964 102.532C101.405 102.779 103.013 103.038 104.622 103.312C105.118 101.772 105.617 100.233 106.113 98.6967C106.61 100.407 107.108 102.118 107.604 103.83C109.213 104.118 110.822 104.418 112.43 104.729C111.129 105.482 109.826 106.24 108.527 107.007C109.024 108.72 109.522 110.437 110.017 112.153C108.717 110.907 107.416 109.669 106.114 108.439C104.812 109.215 103.514 110.001 102.211 110.795C102.709 109.251 103.204 107.708 103.702 106.168C102.398 104.949 101.098 103.736 99.7964 102.532ZM125.478 132.037C124.177 130.735 122.876 129.44 121.574 128.152C120.275 128.869 118.972 129.596 117.671 130.328C118.169 128.807 118.666 127.288 119.161 125.77C117.861 124.49 116.559 123.217 115.259 121.949C116.868 122.273 118.475 122.611 120.085 122.956C120.582 121.439 121.079 119.923 121.575 118.408C122.072 120.141 122.569 121.874 123.066 123.609C124.676 123.969 126.283 124.337 127.892 124.715C126.592 125.413 125.289 126.117 123.99 126.826C124.486 128.562 124.98 130.299 125.478 132.037ZM94.5529 126.321C93.2521 125.142 91.9514 123.972 90.6485 122.811C89.3478 123.657 88.047 124.514 86.7463 125.38C87.2439 123.808 87.7395 122.238 88.2361 120.671C86.9343 119.523 85.6346 118.382 84.3339 117.253C85.9411 117.408 87.5504 117.578 89.1597 117.763C89.6574 116.198 90.153 114.632 90.6496 113.067C91.1483 114.751 91.6438 116.437 92.1415 118.124C93.7498 118.325 95.358 118.543 96.9673 118.774C95.6666 119.591 94.3659 120.417 93.0641 121.252C93.5586 122.94 94.0563 124.63 94.5529 126.321ZM79.0903 108.023C77.7875 106.921 76.4868 105.831 75.1871 104.751C73.8853 105.678 72.5856 106.616 71.2838 107.565C71.7794 105.962 72.277 104.361 72.7747 102.76C71.4729 101.694 70.1732 100.638 68.8714 99.5933C70.4807 99.6442 72.089 99.7117 73.6972 99.7959C74.1949 98.198 74.6905 96.6022 75.1881 95.0074C75.6847 96.6604 76.1803 98.3165 76.679 99.9715C78.2883 100.076 79.8966 100.198 81.5048 100.335C80.202 101.228 78.9033 102.131 77.6016 103.044C78.0982 104.702 78.5937 106.363 79.0903 108.023ZM140.94 119.196C139.638 117.851 138.339 116.509 137.037 115.172C135.735 115.843 134.437 116.52 133.134 117.201C133.629 115.7 134.127 114.2 134.625 112.7C133.323 111.371 132.02 110.047 130.721 108.729C132.33 109.117 133.938 109.515 135.547 109.92C136.045 108.423 136.542 106.925 137.038 105.428C137.536 107.18 138.033 108.93 138.529 110.684C140.138 111.1 141.747 111.524 143.355 111.956C142.052 112.61 140.753 113.27 139.452 113.934C139.947 115.687 140.443 117.44 140.94 119.196ZM123.065 90.2865C124.675 90.6449 126.282 91.0137 127.891 91.3909C126.591 92.089 125.288 92.7935 123.989 93.503C124.487 95.2381 124.981 96.9762 125.479 98.7143C124.178 97.4115 122.877 96.117 121.575 94.8287C120.276 95.5466 118.973 96.2728 117.672 97.0053C118.17 95.4843 118.667 93.9653 119.162 92.4464C117.862 91.1665 116.56 89.8927 115.26 88.6273C116.869 88.9504 118.476 89.287 120.086 89.633C120.583 88.1161 121.08 86.5993 121.576 85.0845C122.071 86.8185 122.568 88.5515 123.065 90.2865ZM140.94 85.8741C139.638 84.5266 138.339 83.1853 137.037 81.8482C135.735 82.5194 134.437 83.1957 133.134 83.8773C133.629 82.3771 134.127 80.8758 134.625 79.3766C133.323 78.0478 132.02 76.7232 130.721 75.4058C132.33 75.7954 133.938 76.1922 135.547 76.5974C136.045 75.0993 136.542 73.6012 137.038 72.1051C137.536 73.8567 138.033 75.6073 138.529 77.36C140.138 77.7766 141.747 78.2006 143.355 78.6328C142.052 79.2873 140.753 79.947 139.452 80.6109C139.947 82.3636 140.443 84.1194 140.94 85.8741ZM104.622 69.9898C105.118 68.4501 105.617 66.9114 106.113 65.3738C106.61 67.0839 107.108 68.7961 107.604 70.5083C109.213 70.795 110.822 71.0953 112.43 71.4069C111.129 72.1591 109.826 72.9176 108.527 73.6843C109.024 75.3985 109.522 77.1138 110.017 78.8302C108.717 77.5845 107.416 76.346 106.114 75.117C104.812 75.8941 103.514 76.6795 102.211 77.4733C102.709 75.9294 103.204 74.3866 103.702 72.8448C102.4 71.6251 101.1 70.4137 99.7984 69.2106C101.405 69.4579 103.013 69.7176 104.622 69.9898ZM92.1404 84.8009C93.7487 85.0035 95.357 85.2206 96.9663 85.4523C95.6656 86.2679 94.3648 87.0938 93.063 87.9302C93.5596 89.6185 94.0562 91.3088 94.5539 92.9992C93.2531 91.82 91.9524 90.6491 90.6496 89.4886C89.3488 90.3343 88.0481 91.1914 86.7473 92.0579C87.245 90.486 87.7405 88.9172 88.2372 87.3484C86.9354 86.2004 85.6357 85.0596 84.3349 83.9313C85.9421 84.0861 87.5515 84.2565 89.1608 84.4425C89.6584 82.8747 90.154 81.309 90.6506 79.7454C91.1483 81.4285 91.6428 83.1147 92.1404 84.8009ZM75.1881 61.6845C75.6847 63.3375 76.1803 64.9925 76.679 66.6486C78.2883 66.7535 79.8966 66.8751 81.5048 67.0122C80.202 67.9047 78.9033 68.8085 77.6016 69.7218C78.0992 71.3799 78.5948 73.0391 79.0924 74.7003C77.7896 73.598 76.4889 72.5082 75.1892 71.4287C73.8874 72.3555 72.5876 73.2915 71.2859 74.2411C71.7814 72.6391 72.2791 71.0371 72.7767 69.4371C71.4749 68.3701 70.1752 67.3145 68.8734 66.2704C70.4828 66.3203 72.091 66.3878 73.6993 66.473C74.1938 64.8751 74.6905 63.2793 75.1881 61.6845ZM28.8037 80.7885C29.3014 82.3251 29.7969 83.8638 30.2946 85.4035C31.9029 85.1334 33.5122 84.8851 35.1205 84.6586C33.8187 85.845 32.5179 87.045 31.2172 88.2616C31.7148 89.8045 32.2094 91.3493 32.708 92.8973C31.4083 92.0942 30.1055 91.3057 28.8048 90.5317C27.503 91.766 26.2033 93.0158 24.9015 94.2791C25.3971 92.5545 25.8947 90.834 26.3924 89.1146C25.0906 88.3593 23.7909 87.6206 22.4891 86.8954C24.0973 86.5495 25.7067 86.2273 27.3149 85.9292C27.8115 84.2149 28.3071 82.4996 28.8037 80.7885ZM7.02449 107.632C8.63173 107.129 10.241 106.65 11.8504 106.196C12.348 104.432 12.8456 102.67 13.3423 100.911C13.8378 102.399 14.3365 103.889 14.8331 105.383C16.4404 104.961 18.0486 104.564 19.659 104.191C18.3572 105.497 17.0585 106.818 15.7557 108.155C16.2513 109.651 16.75 111.15 17.2456 112.652C15.9448 111.97 14.6451 111.304 13.3433 110.655C12.0436 112.013 10.7408 113.386 9.43897 114.778C9.93662 113.005 10.4343 111.237 10.9299 109.469C9.62599 108.84 8.32628 108.226 7.02449 107.632ZM9.43689 148.099C9.93454 146.328 10.4322 144.558 10.9278 142.791C9.62599 142.164 8.32628 141.55 7.02449 140.954C8.63173 140.449 10.241 139.972 11.8504 139.518C12.348 137.754 12.8456 135.991 13.3423 134.234C13.8378 135.721 14.3365 137.212 14.8331 138.706C16.4404 138.284 18.0486 137.886 19.659 137.512C18.3572 138.818 17.0585 140.141 15.7557 141.478C16.2513 142.974 16.75 144.473 17.2456 145.973C15.9448 145.292 14.6451 144.626 13.3433 143.977C12.0415 145.336 10.7387 146.709 9.43689 148.099Z" fill="#337DFF"/>
<path d="M17.2447 79.3287C16.7491 77.8285 16.2504 76.3293 15.7548 74.8332C17.0577 73.4961 18.3563 72.1736 19.6581 70.8687C18.0478 71.2416 16.4395 71.6396 14.8323 72.0614C14.798 71.9585 14.7647 71.8577 14.7294 71.7559C14.6214 72.1881 14.5143 72.6203 14.3938 73.0484C13.9834 74.507 13.6209 75.9792 13.2344 77.4451C13.2707 77.4077 13.305 77.3693 13.3424 77.3319C14.6442 77.9812 15.9439 78.6461 17.2447 79.3287Z" fill="#528DF6"/>
<path d="M45.7579 66.8195C45.2613 65.2362 44.7626 63.6559 44.267 62.0757C43.7683 63.7442 43.2727 65.4149 42.773 67.0876C41.1647 67.2455 39.5585 67.4221 37.9492 67.6236C39.251 68.4652 40.5507 69.3213 41.8536 70.1909C41.3559 71.8667 40.8603 73.5435 40.3616 75.2224C41.6634 74.0754 42.9662 72.9409 44.266 71.8209C45.5667 72.7082 46.8695 73.6079 48.1692 74.5211C47.6706 72.9315 47.1739 71.3441 46.6753 69.7586C47.9781 68.6553 49.2778 67.5644 50.5827 66.487C48.9734 66.5764 47.3651 66.6886 45.7579 66.8195Z" fill="white"/>
<path d="M72.7745 69.4367C72.2769 71.0366 71.7792 72.6386 71.2836 74.2407C72.5854 73.2911 73.8851 72.355 75.1869 71.4283C76.4866 72.5078 77.7874 73.5986 79.0902 74.6999C78.5925 73.0386 78.098 71.3795 77.5993 69.7213C78.9011 68.8071 80.1998 67.9043 81.5026 67.0118C79.8943 66.8747 78.2861 66.7531 76.6768 66.6481C76.1791 64.9921 75.6825 63.336 75.1859 61.6841C74.6882 63.2789 74.1927 64.8747 73.695 66.4726C72.0867 66.3874 70.4785 66.3209 68.8691 66.27C70.173 67.3141 71.4727 68.3697 72.7745 69.4367Z" fill="white"/>
<path d="M102.209 77.4735C103.512 76.6797 104.811 75.8943 106.113 75.1172C107.414 76.3473 108.715 77.5847 110.016 78.8304C109.52 77.114 109.023 75.3988 108.525 73.6845C109.825 72.9178 111.128 72.1583 112.428 71.4071C110.82 71.0955 109.212 70.7952 107.603 70.5085C107.107 68.7963 106.608 67.0841 106.112 65.374C105.615 66.9117 105.116 68.4503 104.621 69.99C103.011 69.7168 101.403 69.457 99.7949 69.2108C101.097 70.4139 102.396 71.6253 103.698 72.845C103.203 74.3878 102.708 75.9296 102.209 77.4735Z" fill="white"/>
<path d="M138.522 77.3594C138.027 75.6067 137.529 73.8561 137.032 72.1045C136.535 73.6006 136.039 75.0987 135.541 76.5968C133.931 76.1906 132.323 75.7948 130.715 75.4052C132.014 76.7236 133.316 78.0472 134.618 79.376C134.12 80.8752 133.623 82.3765 133.127 83.8767C134.43 83.1951 135.729 82.5188 137.031 81.8476C138.332 83.1847 139.631 84.526 140.934 85.8735C140.436 84.1188 139.941 82.363 139.443 80.6103C140.745 79.9454 142.043 79.2867 143.346 78.6322C141.74 78.2 140.132 77.776 138.522 77.3594Z" fill="white"/>
<path d="M9.43987 114.778C10.7417 113.386 12.0445 112.013 13.3442 110.655C14.646 111.304 15.9457 111.97 17.2464 112.652C16.7509 111.15 16.2522 109.651 15.7566 108.155C17.0594 106.818 18.3581 105.495 19.6599 104.191C18.0495 104.564 16.4413 104.961 14.834 105.383C14.3374 103.889 13.8387 102.399 13.3432 100.911C12.8465 102.67 12.3489 104.432 11.8512 106.196C10.2419 106.65 8.63263 107.128 7.02539 107.632C8.32718 108.226 9.62688 108.84 10.9287 109.469C10.4352 111.236 9.93752 113.005 9.43987 114.778Z" fill="white"/>
<path d="M50.5848 99.8082C48.9734 99.8986 47.3651 100.01 45.7579 100.141C45.2613 98.5584 44.7626 96.9771 44.267 95.3979C43.7683 97.0665 43.2727 98.7381 42.773 100.411C41.1647 100.567 39.5585 100.745 37.9492 100.946C39.251 101.788 40.5507 102.644 41.8536 103.514C41.3559 105.188 40.8603 106.866 40.3616 108.545C41.6634 107.398 42.9662 106.264 44.266 105.143C45.5667 106.029 46.8695 106.93 48.1692 107.843C47.6706 106.255 47.1739 104.666 46.6753 103.081C47.9802 101.975 49.2799 100.886 50.5848 99.8082Z" fill="white"/>
<path d="M76.6768 99.9714C76.1791 98.3153 75.6825 96.6592 75.1859 95.0073C74.6882 96.6021 74.1927 98.1979 73.695 99.7958C72.0867 99.7116 70.4785 99.6441 68.8691 99.5932C70.1709 100.638 71.4706 101.693 72.7724 102.76C72.2748 104.361 71.7771 105.962 71.2815 107.565C72.5833 106.616 73.883 105.678 75.1848 104.75C76.4845 105.831 77.7853 106.922 79.0881 108.023C78.5905 106.363 78.0959 104.703 77.5973 103.043C78.899 102.13 80.1977 101.227 81.5005 100.335C79.8943 100.197 78.2861 100.075 76.6768 99.9714Z" fill="white"/>
<path d="M102.209 110.797C103.512 110.003 104.811 109.216 106.113 108.44C107.414 109.672 108.715 110.909 110.016 112.155C109.52 110.438 109.023 108.722 108.525 107.009C109.825 106.242 111.128 105.482 112.428 104.73C110.82 104.42 109.212 104.119 107.603 103.832C107.107 102.119 106.608 100.408 106.112 98.6982C105.615 100.235 105.116 101.774 104.621 103.313C103.011 103.04 101.403 102.78 99.7949 102.534C101.097 103.736 102.396 104.95 103.698 106.169C103.203 107.71 102.708 109.252 102.209 110.797Z" fill="white"/>
<path d="M143.348 111.954C141.74 111.523 140.132 111.099 138.522 110.682C138.027 108.929 137.529 107.178 137.032 105.426C136.535 106.923 136.039 108.421 135.541 109.919C133.931 109.512 132.323 109.116 130.715 108.727C132.014 110.046 133.316 111.369 134.618 112.699C134.12 114.198 133.623 115.698 133.127 117.199C134.43 116.518 135.729 115.842 137.031 115.17C138.332 116.508 139.631 117.849 140.934 119.194C140.436 117.44 139.941 115.686 139.443 113.932C140.747 113.267 142.045 112.608 143.348 111.954Z" fill="white"/>
<path d="M17.2464 145.973C16.7509 144.473 16.2522 142.974 15.7566 141.478C17.0594 140.141 18.3581 138.817 19.6599 137.512C18.0495 137.886 16.4413 138.284 14.834 138.706C14.3374 137.212 13.8387 135.721 13.3432 134.233C12.8465 135.991 12.3489 137.754 11.8512 139.517C10.2419 139.971 8.63263 140.448 7.02539 140.954C8.32718 141.549 9.62688 142.163 10.9287 142.791C10.4331 144.558 9.93544 146.328 9.43779 148.099C10.7396 146.709 12.0424 145.335 13.3421 143.977C14.646 144.626 15.9457 145.292 17.2464 145.973Z" fill="white"/>
<path d="M45.7579 133.464C45.2613 131.882 44.7626 130.301 44.267 128.722C43.7683 130.39 43.2727 132.061 42.773 133.732C41.1647 133.89 39.5585 134.069 37.9492 134.269C39.251 135.112 40.5507 135.967 41.8536 136.837C41.3559 138.512 40.8603 140.188 40.3616 141.868C41.6634 140.72 42.9662 139.586 44.266 138.466C45.5667 139.353 46.8695 140.254 48.1692 141.167C47.6706 139.578 47.1739 137.989 46.6753 136.405C47.9781 135.3 49.2778 134.21 50.5827 133.133C48.9734 133.221 47.3651 133.332 45.7579 133.464Z" fill="white"/>
<path d="M75.1869 138.072C76.4866 139.152 77.7874 140.244 79.0902 141.345C78.5925 139.683 78.098 138.024 77.5993 136.365C78.9011 135.452 80.1998 134.549 81.5026 133.657C79.8943 133.519 78.2861 133.398 76.6768 133.293C76.1791 131.636 75.6825 129.981 75.1859 128.328C74.6882 129.923 74.1927 131.52 73.695 133.117C72.0867 133.032 70.4785 132.965 68.8691 132.914C70.1709 133.959 71.4706 135.014 72.7724 136.082C72.2748 137.682 71.7771 139.284 71.2815 140.887C72.5854 139.936 73.8851 139 75.1869 138.072Z" fill="white"/>
<path d="M107.603 137.153C107.107 135.441 106.608 133.729 106.112 132.019C105.615 133.556 105.116 135.094 104.621 136.634C103.011 136.361 101.403 136.102 99.7949 135.855C101.097 137.058 102.396 138.269 103.698 139.49C103.201 141.031 102.706 142.575 102.207 144.117C103.51 143.324 104.809 142.538 106.111 141.761C107.412 142.991 108.713 144.23 110.014 145.475C109.518 143.759 109.021 142.043 108.523 140.329C109.823 139.563 111.126 138.802 112.426 138.052C110.819 137.739 109.212 137.439 107.603 137.153Z" fill="white"/>
<path d="M138.522 144.005C138.027 142.252 137.529 140.502 137.032 138.75C136.535 140.246 136.039 141.744 135.541 143.242C133.931 142.835 132.323 142.439 130.715 142.05C132.014 143.368 133.316 144.692 134.618 146.022C134.12 147.52 133.623 149.021 133.127 150.522C134.43 149.842 135.729 149.164 137.031 148.493C138.332 149.829 139.631 151.171 140.934 152.518C140.436 150.763 139.941 149.009 139.443 147.255C140.745 146.591 142.043 145.932 143.346 145.277C141.74 144.847 140.132 144.423 138.522 144.005Z" fill="white"/>
<path d="M1.42779 132.869C1.38519 133.157 1.36337 133.445 1.3457 133.733C1.49323 133.794 1.6387 133.85 1.78622 133.913C1.66571 133.564 1.54727 133.218 1.42779 132.869Z" fill="white"/>
<path d="M1.85547 126.025C1.91988 126.202 1.99156 126.38 2.03832 126.56C2.11624 126.859 2.14948 127.161 2.17649 127.464C2.84764 126.711 3.52088 125.951 4.19411 125.208C3.41387 125.467 2.63467 125.752 1.85547 126.025Z" fill="#528DF6"/>
<path d="M30.292 118.725C29.7943 117.185 29.2998 115.646 28.8011 114.11C28.3035 115.823 27.8089 117.537 27.3102 119.252C25.702 119.551 24.0926 119.873 22.4844 120.218C23.7862 120.942 25.0859 121.682 26.3877 122.437C25.89 124.157 25.3924 125.878 24.8968 127.601C26.1986 126.338 27.4983 125.089 28.8001 123.856C30.1008 124.629 31.4036 125.418 32.7034 126.22C32.2057 124.673 31.7101 123.127 31.2125 121.584C32.5132 120.37 33.814 119.169 35.1158 117.983C33.5085 118.207 31.8992 118.455 30.292 118.725Z" fill="white"/>
<path d="M59.7249 121.032C61.0278 122.022 62.3285 123.022 63.6293 124.035C63.1316 122.408 62.635 120.782 62.1373 119.159C63.4402 118.155 64.7409 117.164 66.0417 116.185C64.4344 116.155 62.8251 116.142 61.2189 116.151C60.7213 114.528 60.2257 112.908 59.7249 111.291C59.2294 112.919 58.7317 114.551 58.2351 116.184C56.6247 116.213 55.0165 116.262 53.4082 116.33C54.7121 117.279 56.0128 118.241 57.3156 119.214C56.8169 120.849 56.3214 122.485 55.8217 124.126C57.1245 123.081 58.4242 122.051 59.7249 121.032Z" fill="white"/>
<path d="M92.1377 118.124C91.64 116.437 91.1455 114.751 90.6458 113.067C90.1492 114.632 89.6536 116.198 89.1559 117.763C87.5466 117.578 85.9373 117.408 84.3301 117.253C85.6308 118.383 86.9305 119.523 88.2323 120.671C87.7357 122.238 87.2401 123.809 86.7425 125.38C88.0432 124.514 89.344 123.658 90.6447 122.812C91.9476 123.972 93.2483 125.142 94.5491 126.321C94.0514 124.63 93.5548 122.94 93.0582 121.252C94.36 120.417 95.6607 119.591 96.9615 118.774C95.3542 118.545 93.746 118.326 92.1377 118.124Z" fill="white"/>
<path d="M123.062 123.609C122.564 121.874 122.067 120.141 121.57 118.408C121.074 119.923 120.577 121.439 120.08 122.956C118.47 122.611 116.863 122.274 115.254 121.949C116.554 123.216 117.856 124.489 119.156 125.77C118.661 127.288 118.164 128.807 117.666 130.328C118.967 129.596 120.27 128.87 121.569 128.151C122.871 129.44 124.172 130.735 125.473 132.037C124.975 130.299 124.481 128.562 123.983 126.826C125.282 126.116 126.585 125.413 127.885 124.715C126.277 124.336 124.67 123.968 123.062 123.609Z" fill="white"/>
<path d="M22.4844 86.8969C23.7862 87.621 25.0859 88.3607 26.3876 89.1161C25.89 90.8345 25.3924 92.556 24.8968 94.2806C26.1986 93.0162 27.4983 91.7664 28.8001 90.5332C30.1008 91.3072 31.4036 92.0957 32.7034 92.8988C32.2057 91.3508 31.7101 89.8059 31.2125 88.2631C32.5132 87.0465 33.814 85.8465 35.1158 84.6601C33.5075 84.8865 31.8982 85.1349 30.2899 85.405C29.7923 83.8653 29.2977 82.3266 28.799 80.79C28.3014 82.5012 27.8068 84.2164 27.3081 85.9317C25.702 86.2288 24.0926 86.5509 22.4844 86.8969Z" fill="white"/>
<path d="M58.2351 82.8616C56.6247 82.8907 55.0165 82.9396 53.4082 83.0082C54.7121 83.9557 56.0128 84.9177 57.3156 85.8912C56.8169 87.5265 56.3214 89.1638 55.8217 90.8022C57.1234 89.7602 58.4231 88.7296 59.7239 87.7114C61.0267 88.6994 62.3275 89.701 63.6282 90.7139C63.1306 89.088 62.6339 87.46 62.1363 85.8371C63.4391 84.8335 64.7399 83.8424 66.0406 82.8627C64.4334 82.8346 62.8241 82.8222 61.2179 82.8284C60.7202 81.2066 60.2247 79.5859 59.7239 77.9683C59.2294 79.5963 58.7317 81.2284 58.2351 82.8616Z" fill="white"/>
<path d="M89.1598 84.4413C87.5505 84.2553 85.9412 84.0849 84.334 83.9301C85.6347 85.0584 86.9344 86.1992 88.2362 87.3472C87.7396 88.916 87.244 90.4858 86.7464 92.0566C88.0471 91.1902 89.3479 90.3341 90.6486 89.4874C91.9515 90.6479 93.2522 91.8187 94.553 92.9979C94.0553 91.3076 93.5587 89.6173 93.0621 87.929C94.3639 87.0926 95.6646 86.2667 96.9654 85.4511C95.3561 85.2194 93.7478 85.0023 92.1395 84.7997C91.6419 83.1135 91.1473 81.4273 90.6476 79.7432C90.1531 81.3088 89.6564 82.8746 89.1598 84.4413Z" fill="white"/>
<path d="M120.08 89.6334C118.47 89.2875 116.863 88.9509 115.254 88.6278C116.554 89.8932 117.856 91.1659 119.156 92.4469C118.661 93.9658 118.164 95.4847 117.666 97.0057C118.967 96.2733 120.27 95.5481 121.569 94.8292C122.871 96.1175 124.172 97.412 125.473 98.7148C124.975 96.9767 124.481 95.2385 123.983 93.5035C125.282 92.7929 126.585 92.0895 127.885 91.3913C126.276 91.0142 124.669 90.6443 123.059 90.2869C122.562 88.5519 122.065 86.8179 121.568 85.085C121.074 86.6008 120.577 88.1176 120.08 89.6334Z" fill="white"/>
<path d="M24.9004 60.956C26.2022 59.6917 27.5019 58.4439 28.8037 57.2097C30.1045 57.9837 31.4073 58.7711 32.707 59.5742C32.2094 58.0273 31.7138 56.4814 31.2161 54.9385C32.5169 53.724 33.8176 52.523 35.1194 51.3366C33.5111 51.562 31.9018 51.8103 30.2936 52.0794C30.0494 51.323 29.8052 50.5688 29.5621 49.8135C29.4427 50.175 29.266 50.4919 29.0188 50.9387C27.931 52.9085 26.1077 54.6954 23.7285 54.2788C24.6158 54.7796 25.5041 55.2772 26.3903 55.7915C25.8937 57.5109 25.396 59.2325 24.9004 60.956Z" fill="white"/>
<path d="M55.8223 57.4805C57.1241 56.4374 58.4238 55.4069 59.7245 54.3887C61.0273 55.3778 62.3281 56.3783 63.6288 57.3923C63.3504 56.4832 63.073 55.5762 62.7956 54.6682L57.015 53.5586C56.617 54.8645 56.2202 56.1715 55.8223 57.4805Z" fill="#528DF6"/>
<path d="M86.9832 58.5841L86.8074 58.5601C86.7886 58.6186 86.7708 58.6772 86.752 58.7358C86.8294 58.6845 86.9057 58.6354 86.9832 58.5841Z" fill="white"/>
<path d="M94.5371 59.612L94.4746 59.6035C94.5011 59.6279 94.5286 59.6511 94.555 59.6755C94.5487 59.6543 94.5423 59.6331 94.5371 59.612Z" fill="white"/>
<path d="M125.477 65.3924C125.209 64.4573 124.943 63.5233 124.676 62.5883L122.492 62.4189C123.486 63.408 124.483 64.396 125.477 65.3924Z" fill="#528DF6"/>
<path d="M117.672 63.6822C118.53 63.1991 119.388 62.7232 120.247 62.2464L118.192 62.0874C118.019 62.6193 117.846 63.1503 117.672 63.6822Z" fill="#528DF6"/>
</svg>